<svg width="22" height="22" viewBox="0 0 22 22" fill="none" xmlns="http://www.w3.org/2000/svg">
<path d="M8.47949 8.29492C10.1112 8.89076 11.8895 8.89076 13.5212 8.29492" stroke="#292D32" stroke-width="1.5" stroke-linecap="round" stroke-linejoin="round"/>
<path d="M15.418 1.83398H6.5813C4.6288 1.83398 3.04297 3.42898 3.04297 5.37232V18.2882C3.04297 19.9382 4.22547 20.6348 5.6738 19.8373L10.1471 17.3532C10.6238 17.0873 11.3938 17.0873 11.8613 17.3532L16.3346 19.8373C17.783 20.644 18.9655 19.9473 18.9655 18.2882V5.37232C18.9563 3.42898 17.3705 1.83398 15.418 1.83398Z" stroke="#292D32" stroke-width="1.5" stroke-linecap="round" stroke-linejoin="round"/>
<path d="M15.418 1.83398H6.5813C4.6288 1.83398 3.04297 3.42898 3.04297 5.37232V18.2882C3.04297 19.9382 4.22547 20.6348 5.6738 19.8373L10.1471 17.3532C10.6238 17.0873 11.3938 17.0873 11.8613 17.3532L16.3346 19.8373C17.783 20.644 18.9655 19.9473 18.9655 18.2882V5.37232C18.9563 3.42898 17.3705 1.83398 15.418 1.83398Z" stroke="#292D32" stroke-width="1.5" stroke-linecap="round" stroke-linejoin="round"/>
</svg>
