<svg width="16" height="16" viewBox="0 0 16 16" fill="none" xmlns="http://www.w3.org/2000/svg">
<path d="M14.5 5.33339C14.5 5.60672 14.2733 5.83339 14 5.83339H2C1.72667 5.83339 1.5 5.60672 1.5 5.33339C1.5 5.06005 1.72667 4.83339 2 4.83339H2.68L2.93333 3.62672C3.17333 2.46005 3.67333 1.38672 5.66 1.38672H10.34C12.3267 1.38672 12.8267 2.46005 13.0667 3.62672L13.32 4.83339H14C14.2733 4.83339 14.5 5.06005 14.5 5.33339Z" fill="white"/>
<path d="M14.7864 9.10732C14.6864 8.00732 14.3931 6.83398 12.2531 6.83398H3.7464C1.6064 6.83398 1.31973 8.00732 1.21307 9.10732L0.839732 13.1673C0.793065 13.674 0.959732 14.1807 1.3064 14.5607C1.65973 14.9473 2.15973 15.1673 2.69306 15.1673H3.9464C5.0264 15.1673 5.23307 14.5473 5.3664 14.1406L5.49973 13.7407C5.65306 13.2807 5.69306 13.1673 6.29306 13.1673H9.7064C10.3064 13.1673 10.3264 13.234 10.4997 13.7407L10.6331 14.1406C10.7664 14.5473 10.9731 15.1673 12.0531 15.1673H13.3064C13.8331 15.1673 14.3397 14.9473 14.6931 14.5607C15.0397 14.1807 15.2064 13.674 15.1597 13.1673L14.7864 9.10732ZM5.99973 10.5007H3.99973C3.7264 10.5007 3.49973 10.274 3.49973 10.0007C3.49973 9.72732 3.7264 9.50065 3.99973 9.50065H5.99973C6.27306 9.50065 6.49973 9.72732 6.49973 10.0007C6.49973 10.274 6.27306 10.5007 5.99973 10.5007ZM11.9997 10.5007H9.99973C9.7264 10.5007 9.49973 10.274 9.49973 10.0007C9.49973 9.72732 9.7264 9.50065 9.99973 9.50065H11.9997C12.2731 9.50065 12.4997 9.72732 12.4997 10.0007C12.4997 10.274 12.2731 10.5007 11.9997 10.5007Z" fill="white"/>
</svg>
