<svg width="28" height="28" viewBox="0 0 28 28" fill="none" xmlns="http://www.w3.org/2000/svg">
<path d="M18.888 2.33398H9.11134C4.86467 2.33398 2.33301 4.86565 2.33301 9.11232V18.8773C2.33301 23.1357 4.86467 25.6673 9.11134 25.6673H18.8763C23.123 25.6673 25.6547 23.1357 25.6547 18.889V9.11232C25.6663 4.86565 23.1347 2.33398 18.888 2.33398ZM20.1363 11.6207L17.4413 15.0973C17.103 15.529 16.6247 15.809 16.0763 15.8673C15.528 15.9373 14.9913 15.7857 14.5597 15.4473L12.4247 13.7673C12.343 13.6973 12.2497 13.6973 12.203 13.709C12.1563 13.709 12.0747 13.7323 12.0047 13.8257L9.22801 17.4307C9.05301 17.6523 8.79634 17.769 8.53967 17.769C8.35301 17.769 8.16634 17.7107 8.00301 17.5823C7.61801 17.2907 7.54801 16.7423 7.83967 16.3573L10.6163 12.7523C10.9547 12.3207 11.433 12.0407 11.9813 11.9707C12.518 11.9007 13.0663 12.0523 13.498 12.3907L15.633 14.0707C15.7147 14.1407 15.7963 14.1407 15.8547 14.129C15.9013 14.129 15.983 14.1057 16.053 14.0123L18.748 10.5357C19.0397 10.1507 19.5997 10.0807 19.973 10.384C20.358 10.699 20.428 11.2473 20.1363 11.6207Z" fill="#0F1A2A"/>
</svg>
