<svg width="20" height="20" viewBox="0 0 20 20" fill="none" xmlns="http://www.w3.org/2000/svg">
<path d="M12.6428 20H7.12592C2.13318 20 0 17.8672 0 12.8752V7.35921C0 2.36723 2.13318 0.234375 7.12592 0.234375H8.96487C9.34185 0.234375 9.65447 0.546948 9.65447 0.923875C9.65447 1.3008 9.34185 1.61337 8.96487 1.61337H7.12592C2.88715 1.61337 1.37921 3.12108 1.37921 7.35921V12.8752C1.37921 17.1133 2.88715 18.621 7.12592 18.621H12.6428C16.8815 18.621 18.3895 17.1133 18.3895 12.8752V11.0365C18.3895 10.6596 18.7021 10.347 19.0791 10.347C19.4561 10.347 19.7687 10.6596 19.7687 11.0365V12.8752C19.7687 17.8672 17.6355 20 12.6428 20Z" fill="white"/>
<path d="M6.66605 15.346C6.10518 15.346 5.59027 15.1438 5.21329 14.776C4.76274 14.3256 4.56965 13.6728 4.6708 12.9833L5.06617 10.2161C5.13973 9.68292 5.48913 8.99342 5.86611 8.61649L13.1115 1.37211C14.9413 -0.457369 16.7986 -0.457369 18.6284 1.37211C19.6306 2.37418 20.0811 3.39464 19.9892 4.4151C19.9064 5.2425 19.4651 6.05151 18.6284 6.87891L11.3829 14.1233C11.0059 14.5002 10.3163 14.8496 9.78303 14.9231L7.01546 15.3184C6.89592 15.346 6.77639 15.346 6.66605 15.346ZM14.0862 2.3466L6.84076 9.59098C6.66606 9.76566 6.46377 10.1702 6.42699 10.4092L6.03162 13.1764C5.99484 13.443 6.05001 13.6636 6.18793 13.8015C6.32585 13.9394 6.54652 13.9946 6.81317 13.9578L9.58074 13.5625C9.81981 13.5257 10.2336 13.3235 10.3991 13.1488L17.6445 5.90442C18.2422 5.30685 18.5548 4.77364 18.6008 4.2772C18.6559 3.67963 18.3433 3.04529 17.6445 2.33741C16.1734 0.866472 15.1619 1.28017 14.0862 2.3466Z" fill="white"/>
<path d="M17.1045 8.11486C17.0401 8.11486 16.9757 8.10567 16.9206 8.08728C14.5024 7.40698 12.5807 5.48557 11.9002 3.06772C11.7991 2.69999 12.0106 2.32306 12.3784 2.21274C12.7462 2.11162 13.1231 2.32306 13.2243 2.6908C13.776 4.64898 15.3299 6.20265 17.2884 6.75425C17.6562 6.85538 17.8676 7.2415 17.7665 7.60923C17.6837 7.9218 17.4079 8.11486 17.1045 8.11486Z" fill="white"/>
</svg>
