<svg width="33" height="33" viewBox="0 0 33 33" fill="none" xmlns="http://www.w3.org/2000/svg">
<path d="M22.087 3.16602H10.9137C6.06033 3.16602 3.16699 6.05935 3.16699 10.9127V22.0727C3.16699 26.9394 6.06033 29.8327 10.9137 29.8327H22.0737C26.927 29.8327 29.8203 26.9394 29.8203 22.086V10.9127C29.8337 6.05935 26.9403 3.16602 22.087 3.16602Z" fill="white"/>
<path d="M19.5431 11.9065L20.6006 14.0215C20.7431 14.314 21.1256 14.5915 21.4481 14.6515L23.3606 14.9665C24.5831 15.169 24.8681 16.054 23.9906 16.939L22.4981 18.4315C22.2506 18.679 22.1081 19.1665 22.1906 19.519L22.6181 21.364C22.9556 22.819 22.1756 23.389 20.8931 22.624L19.1006 21.559C18.7781 21.364 18.2381 21.364 17.9156 21.559L16.1231 22.624C14.8406 23.3815 14.0606 22.819 14.3981 21.364L14.8256 19.519C14.8931 19.159 14.7506 18.6715 14.5031 18.424L13.0106 16.9315C12.1331 16.054 12.4181 15.169 13.6406 14.959L15.5531 14.644C15.8756 14.5915 16.2581 14.3065 16.4006 14.014L17.4581 11.899C18.0356 10.759 18.9656 10.759 19.5431 11.9065Z" fill="#4D82F3"/>
<path d="M14 12.3125H9.5C9.1925 12.3125 8.9375 12.0575 8.9375 11.75C8.9375 11.4425 9.1925 11.1875 9.5 11.1875H14C14.3075 11.1875 14.5625 11.4425 14.5625 11.75C14.5625 12.0575 14.3075 12.3125 14 12.3125Z" fill="#4D82F3"/>
<path d="M11.75 22.8125H9.5C9.1925 22.8125 8.9375 22.5575 8.9375 22.25C8.9375 21.9425 9.1925 21.6875 9.5 21.6875H11.75C12.0575 21.6875 12.3125 21.9425 12.3125 22.25C12.3125 22.5575 12.0575 22.8125 11.75 22.8125Z" fill="#4D82F3"/>
<path d="M10.25 17.5625H9.5C9.1925 17.5625 8.9375 17.3075 8.9375 17C8.9375 16.6925 9.1925 16.4375 9.5 16.4375H10.25C10.5575 16.4375 10.8125 16.6925 10.8125 17C10.8125 17.3075 10.5575 17.5625 10.25 17.5625Z" fill="#4D82F3"/>
</svg>
