<svg width="20" height="21" viewBox="0 0 20 21" fill="none" xmlns="http://www.w3.org/2000/svg">
<path d="M7 12.75C6.65 12.75 6.35433 12.629 6.113 12.387C5.871 12.1457 5.75 11.85 5.75 11.5C5.75 11.15 5.871 10.8543 6.113 10.613C6.35433 10.371 6.65 10.25 7 10.25C7.35 10.25 7.64567 10.371 7.887 10.613C8.129 10.8543 8.25 11.15 8.25 11.5C8.25 11.85 8.129 12.1457 7.887 12.387C7.64567 12.629 7.35 12.75 7 12.75ZM13 12.75C12.65 12.75 12.3543 12.629 12.113 12.387C11.871 12.1457 11.75 11.85 11.75 11.5C11.75 11.15 11.871 10.8543 12.113 10.613C12.3543 10.371 12.65 10.25 13 10.25C13.35 10.25 13.6457 10.371 13.887 10.613C14.129 10.8543 14.25 11.15 14.25 11.5C14.25 11.85 14.129 12.1457 13.887 12.387C13.6457 12.629 13.35 12.75 13 12.75ZM10 18.5C12.2333 18.5 14.125 17.725 15.675 16.175C17.225 14.625 18 12.7333 18 10.5C18 10.1 17.975 9.71233 17.925 9.337C17.875 8.96233 17.7833 8.6 17.65 8.25C17.3 8.33333 16.95 8.396 16.6 8.438C16.25 8.47933 15.8833 8.5 15.5 8.5C13.9833 8.5 12.55 8.175 11.2 7.525C9.85 6.875 8.7 5.96667 7.75 4.8C7.21667 6.1 6.45433 7.22933 5.463 8.188C4.471 9.146 3.31667 9.86667 2 10.35V10.5C2 12.7333 2.775 14.625 4.325 16.175C5.875 17.725 7.76667 18.5 10 18.5ZM10 20.5C8.61667 20.5 7.31667 20.2373 6.1 19.712C4.88333 19.1873 3.825 18.475 2.925 17.575C2.025 16.675 1.31267 15.6167 0.788 14.4C0.262667 13.1833 0 11.8833 0 10.5C0 9.11667 0.262667 7.81667 0.788 6.6C1.31267 5.38333 2.025 4.325 2.925 3.425C3.825 2.525 4.88333 1.81233 6.1 1.287C7.31667 0.762333 8.61667 0.5 10 0.5C11.3833 0.5 12.6833 0.762333 13.9 1.287C15.1167 1.81233 16.175 2.525 17.075 3.425C17.975 4.325 18.6873 5.38333 19.212 6.6C19.7373 7.81667 20 9.11667 20 10.5C20 11.8833 19.7373 13.1833 19.212 14.4C18.6873 15.6167 17.975 16.675 17.075 17.575C16.175 18.475 15.1167 19.1873 13.9 19.712C12.6833 20.2373 11.3833 20.5 10 20.5Z" fill="#2475DA"/>
</svg>
