<svg width="40" height="41" viewBox="0 0 40 41" fill="none" xmlns="http://www.w3.org/2000/svg">
<path d="M4.29935 32.1828L4.26602 32.2161C3.81602 31.2328 3.53268 30.1161 3.41602 28.8828C3.53268 30.0995 3.84935 31.1995 4.29935 32.1828Z" fill="#4D82F3"/>
<path d="M14.9999 17.7986C17.1906 17.7986 18.9665 16.0226 18.9665 13.8319C18.9665 11.6412 17.1906 9.86523 14.9999 9.86523C12.8091 9.86523 11.0332 11.6412 11.0332 13.8319C11.0332 16.0226 12.8091 17.7986 14.9999 17.7986Z" fill="#4D82F3"/>
<path d="M26.983 3.83398H13.0163C6.94967 3.83398 3.33301 7.45065 3.33301 13.5173V27.484C3.33301 29.3007 3.64967 30.884 4.26634 32.2173C5.69967 35.384 8.76634 37.1673 13.0163 37.1673H26.983C33.0497 37.1673 36.6663 33.5507 36.6663 27.484V23.6673V13.5173C36.6663 7.45065 33.0497 3.83398 26.983 3.83398ZM33.9497 21.334C32.6497 20.2173 30.5497 20.2173 29.2497 21.334L22.3163 27.284C21.0163 28.4007 18.9163 28.4007 17.6163 27.284L17.0497 26.8173C15.8663 25.784 13.983 25.684 12.6497 26.584L6.41634 30.7673C6.04967 29.834 5.83301 28.7507 5.83301 27.484V13.5173C5.83301 8.81732 8.31634 6.33398 13.0163 6.33398H26.983C31.683 6.33398 34.1663 8.81732 34.1663 13.5173V21.5173L33.9497 21.334Z" fill="#4D82F3"/>
</svg>
