<svg width="34" height="34" viewBox="0 0 34 34" fill="none" xmlns="http://www.w3.org/2000/svg">
<path d="M22.9365 2.83203H11.0648C5.90815 2.83203 2.83398 5.9062 2.83398 11.0629V22.9204C2.83398 28.0912 5.90815 31.1654 11.0648 31.1654H22.9223C28.079 31.1654 31.1532 28.0912 31.1532 22.9345V11.0629C31.1673 5.9062 28.0932 2.83203 22.9365 2.83203Z" fill="#0F1A2A"/>
<path d="M23.5 14.3334C23.5 14.6067 23.2733 14.8334 23 14.8334H11C10.7267 14.8334 10.5 14.6067 10.5 14.3334C10.5 14.0601 10.7267 13.8334 11 13.8334H11.68L11.9333 12.6267C12.1733 11.4601 12.6733 10.3867 14.66 10.3867H19.34C21.3267 10.3867 21.8267 11.4601 22.0667 12.6267L22.32 13.8334H23C23.2733 13.8334 23.5 14.0601 23.5 14.3334Z" fill="white"/>
<path d="M23.7864 18.1073C23.6864 17.0073 23.3931 15.834 21.2531 15.834H12.7464C10.6064 15.834 10.3197 17.0073 10.2131 18.1073L9.83973 22.1673C9.79307 22.674 9.95973 23.1807 10.3064 23.5607C10.6597 23.9473 11.1597 24.1673 11.6931 24.1673H12.9464C14.0264 24.1673 14.2331 23.5473 14.3664 23.1406L14.4997 22.7407C14.6531 22.2807 14.6931 22.1673 15.2931 22.1673H18.7064C19.3064 22.1673 19.3264 22.234 19.4997 22.7407L19.6331 23.1406C19.7664 23.5473 19.9731 24.1673 21.0531 24.1673H22.3064C22.8331 24.1673 23.3397 23.9473 23.6931 23.5607C24.0397 23.1807 24.2064 22.674 24.1597 22.1673L23.7864 18.1073ZM14.9997 19.5007H12.9997C12.7264 19.5007 12.4997 19.274 12.4997 19.0007C12.4997 18.7273 12.7264 18.5007 12.9997 18.5007H14.9997C15.2731 18.5007 15.4997 18.7273 15.4997 19.0007C15.4997 19.274 15.2731 19.5007 14.9997 19.5007ZM20.9997 19.5007H18.9997C18.7264 19.5007 18.4997 19.274 18.4997 19.0007C18.4997 18.7273 18.7264 18.5007 18.9997 18.5007H20.9997C21.2731 18.5007 21.4997 18.7273 21.4997 19.0007C21.4997 19.274 21.2731 19.5007 20.9997 19.5007Z" fill="white"/>
</svg>
