<svg width="32" height="32" viewBox="0 0 32 32" fill="none" xmlns="http://www.w3.org/2000/svg">
<path d="M21.587 2.66602H10.4137C5.56033 2.66602 2.66699 5.55935 2.66699 10.4127V21.5727C2.66699 26.4393 5.56033 29.3327 10.4137 29.3327H21.5737C26.427 29.3327 29.3203 26.4393 29.3203 21.586V10.4127C29.3337 5.55935 26.4403 2.66602 21.587 2.66602Z" fill="white"/>
<path d="M10.75 13C9.505 13 8.5 14.005 8.5 15.25V21.25C8.5 22.495 9.505 23.5 10.75 23.5H11.875C12.7 23.5 13.375 22.825 13.375 22V14.5C13.375 13.675 12.7 13 11.875 13H10.75ZM11.5 19.75C11.5 20.0575 11.245 20.3125 10.9375 20.3125C10.63 20.3125 10.375 20.0575 10.375 19.75V16.75C10.375 16.4425 10.63 16.1875 10.9375 16.1875C11.245 16.1875 11.5 16.4425 11.5 16.75V19.75Z" fill="#4D82F3"/>
<path d="M21.25 8.5H16.75C15.505 8.5 14.5 9.505 14.5 10.75V21.25C14.5 22.495 15.505 23.5 16.75 23.5H17.125C17.335 23.5 17.5 23.335 17.5 23.125V20.5C17.5 20.0875 17.8375 19.75 18.25 19.75H19.75C20.1625 19.75 20.5 20.0875 20.5 20.5V23.125C20.5 23.335 20.665 23.5 20.875 23.5H21.25C22.495 23.5 23.5 22.495 23.5 21.25V10.75C23.5 9.505 22.495 8.5 21.25 8.5ZM18.0625 16.75C18.0625 17.0575 17.8075 17.3125 17.5 17.3125C17.1925 17.3125 16.9375 17.0575 16.9375 16.75V13C16.9375 12.6925 17.1925 12.4375 17.5 12.4375C17.8075 12.4375 18.0625 12.6925 18.0625 13V16.75ZM21.0625 16.75C21.0625 17.0575 20.8075 17.3125 20.5 17.3125C20.1925 17.3125 19.9375 17.0575 19.9375 16.75V13C19.9375 12.6925 20.1925 12.4375 20.5 12.4375C20.8075 12.4375 21.0625 12.6925 21.0625 13V16.75Z" fill="#4D82F3"/>
</svg>
