<svg width="28" height="28" viewBox="0 0 28 28" fill="none" xmlns="http://www.w3.org/2000/svg">
<path d="M24.3013 9.34567L16.6596 3.23234C15.1663 2.04234 12.833 2.03067 11.3513 3.22067L3.70963 9.34567C2.61296 10.2207 1.94796 11.9707 2.1813 13.3473L3.6513 22.144C3.98963 24.1157 5.8213 25.6673 7.8163 25.6673H20.183C22.1546 25.6673 24.0213 24.0807 24.3596 22.1323L25.8296 13.3357C26.0396 11.9707 25.3746 10.2207 24.3013 9.34567ZM14.8746 21.0007C14.8746 21.479 14.478 21.8757 13.9996 21.8757C13.5213 21.8757 13.1246 21.479 13.1246 21.0007V17.5007C13.1246 17.0223 13.5213 16.6257 13.9996 16.6257C14.478 16.6257 14.8746 17.0223 14.8746 17.5007V21.0007Z" fill="#0F1A2A"/>
</svg>
