<svg width="16" height="16" viewBox="0 0 16 16" fill="none" xmlns="http://www.w3.org/2000/svg">
<path d="M14.6663 14.1678H13.9997V6.65445C13.9997 6.24112 13.813 5.85445 13.4863 5.60112L12.6663 4.96112L12.653 3.32779C12.653 2.96112 12.353 2.66779 11.9863 2.66779H9.71301L8.81967 1.97445C8.33967 1.59445 7.65967 1.59445 7.17967 1.97445L2.51301 5.60112C2.18634 5.85445 1.99967 6.24112 1.99967 6.64779L1.96634 14.1678H1.33301C1.05967 14.1678 0.833008 14.3945 0.833008 14.6678C0.833008 14.9411 1.05967 15.1678 1.33301 15.1678H14.6663C14.9397 15.1678 15.1663 14.9411 15.1663 14.6678C15.1663 14.3945 14.9397 14.1678 14.6663 14.1678ZM4.33301 8.50112V7.50112C4.33301 7.13445 4.63301 6.83445 4.99967 6.83445H6.33301C6.69967 6.83445 6.99967 7.13445 6.99967 7.50112V8.50112C6.99967 8.86779 6.69967 9.16779 6.33301 9.16779H4.99967C4.63301 9.16779 4.33301 8.86779 4.33301 8.50112ZM9.66634 14.1678H6.33301V12.3345C6.33301 11.7811 6.77967 11.3345 7.33301 11.3345H8.66634C9.21967 11.3345 9.66634 11.7811 9.66634 12.3345V14.1678ZM11.6663 8.50112C11.6663 8.86779 11.3663 9.16779 10.9997 9.16779H9.66634C9.29967 9.16779 8.99967 8.86779 8.99967 8.50112V7.50112C8.99967 7.13445 9.29967 6.83445 9.66634 6.83445H10.9997C11.3663 6.83445 11.6663 7.13445 11.6663 7.50112V8.50112Z" fill="white"/>
</svg>
