<svg width="22" height="13" viewBox="0 0 22 13" fill="none" xmlns="http://www.w3.org/2000/svg">
<path d="M6 9.5C6.83333 9.5 7.54167 9.20833 8.125 8.625C8.70833 8.04167 9 7.33333 9 6.5C9 5.66667 8.70833 4.95833 8.125 4.375C7.54167 3.79167 6.83333 3.5 6 3.5C5.16667 3.5 4.45833 3.79167 3.875 4.375C3.29167 4.95833 3 5.66667 3 6.5C3 7.33333 3.29167 8.04167 3.875 8.625C4.45833 9.20833 5.16667 9.5 6 9.5ZM6 12.5C4.33333 12.5 2.91667 11.9167 1.75 10.75C0.583333 9.58333 0 8.16667 0 6.5C0 4.83333 0.583333 3.41667 1.75 2.25C2.91667 1.08333 4.33333 0.5 6 0.5C7.35 0.5 8.52933 0.883333 9.538 1.65C10.546 2.41667 11.25 3.36667 11.65 4.5H19.6C19.7333 4.5 19.8627 4.525 19.988 4.575C20.1127 4.625 20.2167 4.69167 20.3 4.775L21.275 5.75C21.375 5.85 21.45 5.96233 21.5 6.087C21.55 6.21233 21.575 6.34167 21.575 6.475C21.575 6.60833 21.5543 6.73333 21.513 6.85C21.471 6.96667 21.4 7.075 21.3 7.175L18.7 9.775C18.6 9.875 18.4917 9.95 18.375 10C18.2583 10.05 18.1333 10.075 18 10.075C17.8667 10.075 17.7417 10.054 17.625 10.012C17.5083 9.97067 17.4 9.9 17.3 9.8L16 8.5L14.7 9.8C14.6 9.9 14.4917 9.97067 14.375 10.012C14.2583 10.054 14.1333 10.075 14 10.075C13.8667 10.075 13.7417 10.054 13.625 10.012C13.5083 9.97067 13.4 9.9 13.3 9.8L12 8.5H11.65C11.2333 9.7 10.5083 10.6667 9.475 11.4C8.44167 12.1333 7.28333 12.5 6 12.5Z" fill="#2475DA"/>
</svg>
