<svg width="33" height="33" viewBox="0 0 33 33" fill="none" xmlns="http://www.w3.org/2000/svg">
<path d="M22.087 3.16602H10.9137C6.06033 3.16602 3.16699 6.05935 3.16699 10.9127V22.0727C3.16699 26.9394 6.06033 29.8327 10.9137 29.8327H22.0737C26.927 29.8327 29.8203 26.9394 29.8203 22.086V10.9127C29.8337 6.05935 26.9403 3.16602 22.087 3.16602Z" fill="white"/>
<path d="M21.5001 12.25C21.0426 12.25 20.6226 11.9875 20.4126 11.5825L19.8726 10.495C19.5276 9.8125 18.6276 9.25 17.8626 9.25H16.1451C15.3726 9.25 14.4726 9.8125 14.1276 10.495L13.5876 11.5825C13.3776 11.9875 12.9576 12.25 12.5001 12.25C10.8726 12.25 9.58263 13.6225 9.68763 15.2425L10.0776 21.4375C10.1676 22.9825 11.0001 24.25 13.0701 24.25H20.9301C23.0001 24.25 23.8251 22.9825 23.9226 21.4375L24.3126 15.2425C24.4176 13.6225 23.1276 12.25 21.5001 12.25ZM15.8751 13.1875H18.1251C18.4326 13.1875 18.6876 13.4425 18.6876 13.75C18.6876 14.0575 18.4326 14.3125 18.1251 14.3125H15.8751C15.5676 14.3125 15.3126 14.0575 15.3126 13.75C15.3126 13.4425 15.5676 13.1875 15.8751 13.1875ZM17.0001 21.34C15.6051 21.34 14.4651 20.2075 14.4651 18.805C14.4651 17.4025 15.5976 16.27 17.0001 16.27C18.4026 16.27 19.5351 17.4025 19.5351 18.805C19.5351 20.2075 18.3951 21.34 17.0001 21.34Z" fill="#4D82F3"/>
</svg>
