<svg width="33" height="33" viewBox="0 0 33 33" fill="none" xmlns="http://www.w3.org/2000/svg">
<path d="M29.1137 7.21935C27.9937 4.61935 25.527 3.16602 22.087 3.16602H10.9137C6.63366 3.16602 3.16699 6.63268 3.16699 10.9127V22.086C3.16699 25.526 4.62033 27.9927 7.22033 29.1127C7.47366 29.2193 7.76699 29.1527 7.95366 28.966L28.967 7.95268C29.167 7.75268 29.2337 7.45935 29.1137 7.21935ZM14.5403 16.8193C14.0203 17.326 13.3403 17.566 12.6603 17.566C11.9803 17.566 11.3003 17.3127 10.7803 16.8193C9.42033 15.5393 7.92699 13.4993 8.50033 11.0727C9.00699 8.87268 10.9537 7.88602 12.6603 7.88602C14.367 7.88602 16.3137 8.87268 16.8203 11.086C17.3803 13.4993 15.887 15.5393 14.5403 16.8193Z" fill="white"/>
<path d="M14.5403 16.8193C14.0203 17.326 13.3403 17.566 12.6603 17.566C11.9803 17.566 11.3003 17.3127 10.7803 16.8193C9.42033 15.5393 7.92699 13.4993 8.50033 11.0727C9.00699 8.87268 10.9537 7.88602 12.6603 7.88602C14.367 7.88602 16.3137 8.87268 16.8203 11.086C17.3803 13.4993 15.887 15.5393 14.5403 16.8193Z" fill="#4D82F3"/>
<path d="M26.4595 27.8727C26.7529 28.166 26.7129 28.646 26.3529 28.846C25.1795 29.4994 23.7529 29.8327 22.0862 29.8327H10.9129C10.5262 29.8327 10.3662 29.3794 10.6329 29.1127L18.6862 21.0594C18.9529 20.7927 19.3662 20.7927 19.6329 21.0594L26.4595 27.8727Z" fill="white"/>
<path d="M29.8333 10.9138V22.0872C29.8333 23.7538 29.5 25.1938 28.8467 26.3538C28.6467 26.7138 28.1667 26.7405 27.8733 26.4605L21.0467 19.6338C20.78 19.3672 20.78 18.9538 21.0467 18.6872L29.1 10.6338C29.38 10.3672 29.8333 10.5272 29.8333 10.9138Z" fill="white"/>
<path d="M12.7005 10.4863C11.9539 10.4863 11.3672 11.0863 11.3672 11.8197C11.3672 12.553 11.9672 13.153 12.7005 13.153C13.4339 13.153 14.0339 12.553 14.0339 11.8197C14.0339 11.0863 13.4339 10.4863 12.7005 10.4863Z" fill="white"/>
</svg>
