<svg width="32" height="32" viewBox="0 0 32 32" fill="none" xmlns="http://www.w3.org/2000/svg">
<path d="M21.587 2.66602H10.4137C5.56033 2.66602 2.66699 5.55935 2.66699 10.4127V21.5727C2.66699 26.4393 5.56033 29.3327 10.4137 29.3327H21.5737C26.427 29.3327 29.3203 26.4393 29.3203 21.586V10.4127C29.3337 5.55935 26.4403 2.66602 21.587 2.66602Z" fill="white"/>
<path d="M21.0026 8.5H19.5776C17.9426 8.5 17.0801 9.3625 17.0801 10.9975V12.4225C17.0801 14.0575 17.9426 14.92 19.5776 14.92H21.0026C22.6376 14.92 23.5001 14.0575 23.5001 12.4225V10.9975C23.5001 9.3625 22.6376 8.5 21.0026 8.5Z" fill="#0F1A2A"/>
<path d="M12.43 17.0723H11.005C9.3625 17.0723 8.5 17.9348 8.5 19.5698V20.9948C8.5 22.6373 9.3625 23.4998 10.9975 23.4998H12.4225C14.0575 23.4998 14.92 22.6373 14.92 21.0023V19.5773C14.9275 17.9348 14.065 17.0723 12.43 17.0723Z" fill="#0F1A2A"/>
<path d="M11.7175 14.935C13.4945 14.935 14.935 13.4945 14.935 11.7175C14.935 9.94052 13.4945 8.5 11.7175 8.5C9.94052 8.5 8.5 9.94052 8.5 11.7175C8.5 13.4945 9.94052 14.935 11.7175 14.935Z" fill="#0F1A2A"/>
<path d="M20.282 23.5014C22.0589 23.5014 23.4995 22.0609 23.4995 20.2839C23.4995 18.5069 22.0589 17.0664 20.282 17.0664C18.505 17.0664 17.0645 18.5069 17.0645 20.2839C17.0645 22.0609 18.505 23.5014 20.282 23.5014Z" fill="#0F1A2A"/>
</svg>
