<svg width="33" height="33" viewBox="0 0 33 33" fill="none" xmlns="http://www.w3.org/2000/svg">
<path d="M22.087 3.16602H10.9137C6.06033 3.16602 3.16699 6.05935 3.16699 10.9127V22.0727C3.16699 26.9394 6.06033 29.8327 10.9137 29.8327H22.0737C26.927 29.8327 29.8203 26.9394 29.8203 22.086V10.9127C29.8337 6.05935 26.9403 3.16602 22.087 3.16602ZM20.2203 22.6327C20.0203 22.886 19.727 23.0193 19.4337 23.0193C19.2203 23.0193 19.007 22.9527 18.8203 22.806C17.407 21.7127 15.5803 21.7127 14.167 22.806C13.727 23.1393 13.1003 23.0593 12.767 22.6327C12.4337 22.1927 12.5137 21.566 12.9403 21.2327C15.0603 19.5927 17.9137 19.5927 20.0337 21.2327C20.487 21.566 20.567 22.1927 20.2203 22.6327ZM23.167 18.5127C22.967 18.766 22.6737 18.8994 22.3803 18.8994C22.167 18.8994 21.9537 18.8327 21.767 18.686C18.567 16.2194 14.447 16.2194 11.247 18.686C10.807 19.0327 10.1803 18.9527 9.83366 18.5127C9.48699 18.0727 9.58033 17.446 10.007 17.1127C13.9403 14.0727 19.0337 14.0727 22.967 17.1127C23.4203 17.446 23.5003 18.0727 23.167 18.5127ZM25.287 14.3927C25.087 14.646 24.7937 14.7793 24.5003 14.7793C24.287 14.7793 24.0737 14.7127 23.887 14.566C19.3937 11.0993 13.5937 11.0993 9.11366 14.566C8.67366 14.8993 8.04699 14.8194 7.71366 14.3927C7.38033 13.9527 7.46033 13.326 7.88699 12.9927C13.1137 8.95268 19.8737 8.95268 25.1137 12.9927C25.5537 13.326 25.6337 13.9527 25.287 14.3927Z" fill="white"/>
<path d="M20.2203 22.6327C20.0203 22.886 19.727 23.0193 19.4337 23.0193C19.2203 23.0193 19.007 22.9527 18.8203 22.806C17.407 21.7127 15.5803 21.7127 14.167 22.806C13.727 23.1393 13.1003 23.0593 12.767 22.6327C12.4337 22.1927 12.5137 21.566 12.9403 21.2327C15.0603 19.5927 17.9137 19.5927 20.0337 21.2327C20.487 21.566 20.567 22.1927 20.2203 22.6327Z" fill="#4D82F3"/>
<path d="M25.287 14.3927C25.087 14.646 24.7937 14.7793 24.5003 14.7793C24.287 14.7793 24.0737 14.7127 23.887 14.566C19.3937 11.0993 13.5937 11.0993 9.11366 14.566C8.67366 14.8993 8.04699 14.8194 7.71366 14.3927C7.38033 13.9527 7.46033 13.326 7.88699 12.9927C13.1137 8.95268 19.8737 8.95268 25.1137 12.9927C25.5537 13.326 25.6337 13.9527 25.287 14.3927Z" fill="#4D82F3"/>
<path d="M23.167 18.5127C22.967 18.766 22.6737 18.8994 22.3803 18.8994C22.167 18.8994 21.9537 18.8327 21.767 18.686C18.567 16.2194 14.447 16.2194 11.247 18.686C10.807 19.0327 10.1803 18.9527 9.83366 18.5127C9.48699 18.0727 9.58033 17.446 10.007 17.1127C13.9403 14.0727 19.0337 14.0727 22.967 17.1127C23.4203 17.446 23.5003 18.0727 23.167 18.5127Z" fill="#4D82F3"/>
</svg>
