<svg width="32" height="32" viewBox="0 0 32 32" fill="none" xmlns="http://www.w3.org/2000/svg">
<path d="M21.587 2.66602H10.4137C5.56033 2.66602 2.66699 5.55935 2.66699 10.4127V21.5727C2.66699 26.4393 5.56033 29.3327 10.4137 29.3327H21.5737C26.427 29.3327 29.3203 26.4393 29.3203 21.586V10.4127C29.3337 5.55935 26.4403 2.66602 21.587 2.66602ZM19.7203 22.1327C19.5203 22.386 19.227 22.5193 18.9337 22.5193C18.7203 22.5193 18.507 22.4527 18.3203 22.306C16.907 21.2127 15.0803 21.2127 13.667 22.306C13.227 22.6393 12.6003 22.5593 12.267 22.1327C11.9337 21.6927 12.0137 21.066 12.4403 20.7327C14.5603 19.0927 17.4137 19.0927 19.5337 20.7327C19.987 21.066 20.067 21.6927 19.7203 22.1327ZM22.667 18.0127C22.467 18.266 22.1737 18.3993 21.8803 18.3993C21.667 18.3993 21.4537 18.3327 21.267 18.186C18.067 15.7193 13.947 15.7193 10.747 18.186C10.307 18.5327 9.68033 18.4527 9.33366 18.0127C8.98699 17.5727 9.08033 16.946 9.50699 16.6127C13.4403 13.5727 18.5337 13.5727 22.467 16.6127C22.9203 16.946 23.0003 17.5727 22.667 18.0127ZM24.787 13.8927C24.587 14.146 24.2937 14.2793 24.0003 14.2793C23.787 14.2793 23.5737 14.2127 23.387 14.066C18.8937 10.5993 13.0937 10.5993 8.61366 14.066C8.17366 14.3993 7.54699 14.3193 7.21366 13.8927C6.88033 13.4527 6.96033 12.826 7.38699 12.4927C12.6137 8.45268 19.3737 8.45268 24.6137 12.4927C25.0537 12.826 25.1337 13.4527 24.787 13.8927Z" fill="#0F1A2A"/>
</svg>
