<svg width="28" height="28" viewBox="0 0 28 28" fill="none" xmlns="http://www.w3.org/2000/svg">
<path d="M22.167 9.33398C24.1 9.33398 25.667 7.76698 25.667 5.83398C25.667 3.90099 24.1 2.33398 22.167 2.33398C20.234 2.33398 18.667 3.90099 18.667 5.83398C18.667 7.76698 20.234 9.33398 22.167 9.33398Z" fill="#0F1A2A"/>
<path d="M23.0997 10.99C23.0763 10.99 23.053 11.0017 23.0297 11.0017C22.913 11.025 22.7963 11.0367 22.668 11.06C22.178 11.1067 21.653 11.0833 21.1163 10.9783C20.9763 10.9433 20.8597 10.92 20.7313 10.8733C20.3463 10.78 19.9847 10.6283 19.6463 10.43C19.5063 10.36 19.3663 10.2667 19.238 10.185C18.678 9.8 18.1997 9.32167 17.8147 8.76167C17.733 8.63333 17.6397 8.49333 17.5697 8.35333C17.3713 8.015 17.2197 7.65333 17.1263 7.26833C17.0797 7.14 17.0563 7.02333 17.0213 6.88333C16.9163 6.34667 16.893 5.82167 16.9397 5.33167C16.963 5.20333 16.9747 5.08667 16.998 4.97C16.998 4.94667 17.0097 4.92333 17.0097 4.9C17.1497 4.17667 16.613 3.5 15.8663 3.5H8.77301C8.60967 3.5 8.44634 3.51167 8.29467 3.52333C8.15467 3.535 8.02634 3.54667 7.88634 3.57C7.74634 3.58167 7.60634 3.605 7.47801 3.62833C4.66634 4.03667 2.86967 5.82167 2.46134 8.645C2.43801 8.77333 2.41467 8.91333 2.40301 9.05333C2.37967 9.19333 2.36801 9.32167 2.35634 9.46167C2.34467 9.61333 2.33301 9.77667 2.33301 9.94V19.2267C2.33301 19.39 2.34467 19.5533 2.35634 19.705C2.36801 19.845 2.37967 19.9733 2.40301 20.1133C2.41467 20.2533 2.43801 20.3933 2.46134 20.5217C2.86967 23.345 4.66634 25.13 7.47801 25.5383C7.60634 25.5617 7.74634 25.585 7.88634 25.5967C8.02634 25.62 8.15467 25.6317 8.29467 25.6433C8.44634 25.655 8.60967 25.6667 8.77301 25.6667H18.0597C18.223 25.6667 18.3863 25.655 18.538 25.6433C18.678 25.6317 18.8063 25.62 18.9463 25.5967C19.0863 25.585 19.2263 25.5617 19.3547 25.5383C22.1663 25.13 23.963 23.345 24.3713 20.5217C24.3947 20.3933 24.418 20.2533 24.4297 20.1133C24.453 19.9733 24.4647 19.845 24.4763 19.705C24.488 19.5533 24.4997 19.39 24.4997 19.2267V12.1333C24.4997 11.3867 23.823 10.85 23.0997 10.99ZM7.87467 14.5833H13.708C14.1863 14.5833 14.583 14.98 14.583 15.4583C14.583 15.9367 14.1863 16.3333 13.708 16.3333H7.87467C7.39634 16.3333 6.99967 15.9367 6.99967 15.4583C6.99967 14.98 7.39634 14.5833 7.87467 14.5833ZM18.3747 21H7.87467C7.39634 21 6.99967 20.6033 6.99967 20.125C6.99967 19.6467 7.39634 19.25 7.87467 19.25H18.3747C18.853 19.25 19.2497 19.6467 19.2497 20.125C19.2497 20.6033 18.853 21 18.3747 21Z" fill="#0F1A2A"/>
</svg>
