<svg width="14" height="14" viewBox="0 0 14 14" fill="none" xmlns="http://www.w3.org/2000/svg">
<g clip-path="url(#clip0_1686_10388)">
<path d="M6.06202 1.18069C6.18549 0.782082 6.57924 0.48361 7.00119 0.504999C7.43966 0.482637 7.83633 0.806387 7.95299 1.22153C8.33702 2.38139 8.69966 3.54903 9.09049 4.70694C10.3349 4.70597 11.5794 4.69917 12.8238 4.70889C13.3547 4.70597 13.8165 5.20861 13.7737 5.7375C13.7776 6.08458 13.5452 6.37333 13.274 6.56389C12.3095 7.25903 11.3519 7.96486 10.3845 8.65611C10.7297 9.82666 11.1341 10.9787 11.5006 12.1425C11.6163 12.5051 11.5609 12.9407 11.2683 13.2061C10.927 13.5522 10.3359 13.5746 9.95966 13.2712C8.97285 12.5547 7.98605 11.8382 7.00022 11.1187C6.01341 11.8382 5.02563 12.5557 4.03688 13.2732C3.6616 13.5746 3.07438 13.5512 2.73216 13.2081C2.43855 12.9407 2.38216 12.5012 2.50077 12.1367C2.8673 10.9749 3.2698 9.82472 3.61591 8.65611C2.64855 7.96583 1.69188 7.26 0.726464 6.56486C0.455214 6.37528 0.223825 6.0875 0.226742 5.74042C0.181047 5.20958 0.64577 4.70403 1.17855 4.70889C2.42202 4.69917 3.66549 4.70597 4.90896 4.70694C5.30563 3.53542 5.66924 2.35319 6.06202 1.18069ZM6.92535 1.35375C6.46744 2.76347 6.00855 4.17125 5.55063 5.58097C4.05341 5.60722 2.55327 5.55375 1.05605 5.60819C1.13285 5.7375 1.22716 5.85708 1.3516 5.94264C2.45313 6.73986 3.55563 7.53611 4.65133 8.34208C4.21285 9.77417 3.69077 11.1829 3.29021 12.6267C3.60619 12.5693 3.83758 12.3331 4.09035 12.1581C5.05966 11.4532 6.02702 10.7464 7.00022 10.0464C8.10369 10.8426 9.20424 11.6428 10.3029 12.4468C10.4215 12.5382 10.5624 12.5917 10.7073 12.6276C10.3116 11.1819 9.78563 9.77514 9.3491 8.34208C10.3135 7.62944 11.2867 6.93042 12.256 6.22458C12.5001 6.03792 12.7956 5.89208 12.9434 5.60819C11.4462 5.55375 9.94702 5.60625 8.44883 5.58097C8.0123 4.24514 7.5816 2.90833 7.14605 1.57347C7.13244 1.44805 7.02258 1.40236 6.92535 1.35375Z" fill="#383838"/>
<path d="M6.92497 1.35352C7.02219 1.40213 7.13205 1.44782 7.14567 1.57324C7.58122 2.9081 8.01192 4.24491 8.44844 5.58074C9.94664 5.60602 11.4458 5.55352 12.943 5.60796C12.7952 5.89185 12.4997 6.03768 12.2557 6.22435C11.2864 6.93018 10.3132 7.62921 9.34872 8.34185C9.78525 9.77491 10.3112 11.1817 10.7069 12.6274C10.5621 12.5914 10.4211 12.538 10.3025 12.4466C9.20386 11.6425 8.1033 10.8424 6.99983 10.0462C6.02664 10.7462 5.05928 11.453 4.08997 12.1578C3.83719 12.3328 3.6058 12.5691 3.28983 12.6264C3.69039 11.1827 4.21247 9.77393 4.65094 8.34185C3.55525 7.53588 2.45275 6.73963 1.35122 5.9424C1.22678 5.85685 1.13247 5.73727 1.05566 5.60796C2.55289 5.55352 4.05303 5.60699 5.55025 5.58074C6.00816 4.17102 6.46705 2.76324 6.92497 1.35352Z" fill="#FFC83D"/>
</g>
<defs>
<clipPath id="clip0_1686_10388">
<rect width="14" height="14" fill="white"/>
</clipPath>
</defs>
</svg>
