<svg width="33" height="33" viewBox="0 0 33 33" fill="none" xmlns="http://www.w3.org/2000/svg">
<path d="M22.087 3.16602H10.9137C6.06033 3.16602 3.16699 6.05935 3.16699 10.9127V22.0727C3.16699 26.9393 6.06033 29.8327 10.9137 29.8327H22.0737C26.927 29.8327 29.8203 26.9393 29.8203 22.086V10.9127C29.8337 6.05935 26.9403 3.16602 22.087 3.16602Z" fill="white"/>
<path d="M20 14.5625C19.6925 14.5625 19.4375 14.3075 19.4375 14V11.375C19.4375 10.565 18.935 10.0625 18.125 10.0625H15.875C15.065 10.0625 14.5625 10.565 14.5625 11.375V14C14.5625 14.3075 14.3075 14.5625 14 14.5625C13.6925 14.5625 13.4375 14.3075 13.4375 14V11.375C13.4375 9.9425 14.4425 8.9375 15.875 8.9375H18.125C19.5575 8.9375 20.5625 9.9425 20.5625 11.375V14C20.5625 14.3075 20.3075 14.5625 20 14.5625Z" fill="#4D82F3"/>
<path d="M13.9992 21.335C13.6917 21.335 13.4367 21.08 13.4367 20.7725C13.4367 20.4575 13.6917 20.21 13.9992 20.21H22.8192C23.0442 20.21 23.2167 20.015 23.1942 19.79L22.6842 15.5225C22.5042 14.0675 22.2492 12.875 19.6992 12.875H14.2992C11.7492 12.875 11.4942 14.0675 11.3217 15.5225L10.6467 21.1475C10.4292 22.9925 10.9992 24.5 13.6317 24.5H20.3667C22.7367 24.5 23.4342 23.2775 23.3967 21.6875C23.3892 21.485 23.2242 21.335 23.0217 21.335H13.9992Z" fill="#4D82F3"/>
</svg>
