<svg width="28" height="28" viewBox="0 0 28 28" fill="none" xmlns="http://www.w3.org/2000/svg">
<path d="M22.7612 6.82565L15.8312 2.82398C14.6996 2.17065 13.2996 2.17065 12.1562 2.82398L5.23792 6.82565C4.10625 7.47898 3.40625 8.69232 3.40625 10.0107V17.9907C3.40625 19.2973 4.10625 20.5107 5.23792 21.1757L12.1679 25.1773C13.2996 25.8307 14.6996 25.8307 15.8429 25.1773L22.7729 21.1757C23.9046 20.5223 24.6046 19.309 24.6046 17.9907V10.0107C24.5929 8.69232 23.8929 7.49065 22.7612 6.82565ZM13.9996 8.56398C15.5046 8.56398 16.7179 9.77732 16.7179 11.2823C16.7179 12.7873 15.5046 14.0007 13.9996 14.0007C12.4946 14.0007 11.2812 12.7873 11.2812 11.2823C11.2812 9.78898 12.4946 8.56398 13.9996 8.56398ZM17.1263 19.4373H10.8729C9.92792 19.4373 9.37958 18.3873 9.90458 17.6057C10.6979 16.4273 12.2379 15.634 13.9996 15.634C15.7612 15.634 17.3012 16.4273 18.0946 17.6057C18.6196 18.3757 18.0596 19.4373 17.1263 19.4373Z" fill="#0F1A2A"/>
</svg>
