<svg width="20" height="21" viewBox="0 0 20 21" fill="none" xmlns="http://www.w3.org/2000/svg">
<mask id="mask0_1925_8841" style="mask-type:alpha" maskUnits="userSpaceOnUse" x="0" y="0" width="20" height="21">
<rect y="0.5" width="20" height="20" fill="#D9D9D9"/>
</mask>
<g mask="url(#mask0_1925_8841)">
<path d="M10.0003 13.834C11.042 13.834 11.9275 13.4695 12.657 12.7407C13.3859 12.0112 13.7503 11.1257 13.7503 10.084C13.7503 9.04232 13.3859 8.15676 12.657 7.42732C11.9275 6.69843 11.042 6.33398 10.0003 6.33398C8.95866 6.33398 8.0731 6.69843 7.34366 7.42732C6.61477 8.15676 6.25033 9.04232 6.25033 10.084C6.25033 11.1257 6.61477 12.0112 7.34366 12.7407C8.0731 13.4695 8.95866 13.834 10.0003 13.834ZM10.0003 12.334C9.37533 12.334 8.84421 12.1151 8.40699 11.6773C7.96921 11.2401 7.75033 10.709 7.75033 10.084C7.75033 9.45898 7.96921 8.9276 8.40699 8.48982C8.84421 8.0526 9.37533 7.83398 10.0003 7.83398C10.6253 7.83398 11.1567 8.0526 11.5945 8.48982C12.0317 8.9276 12.2503 9.45898 12.2503 10.084C12.2503 10.709 12.0317 11.2401 11.5945 11.6773C11.1567 12.1151 10.6253 12.334 10.0003 12.334ZM10.0003 16.334C8.06977 16.334 6.30588 15.8237 4.70866 14.8032C3.11144 13.782 1.9031 12.4034 1.08366 10.6673C1.04199 10.5979 1.01421 10.5109 1.00033 10.4065C0.986437 10.3026 0.979492 10.1951 0.979492 10.084C0.979492 9.97287 0.986437 9.8651 1.00033 9.76065C1.01421 9.65676 1.04199 9.5701 1.08366 9.50065C1.9031 7.76454 3.11144 6.38621 4.70866 5.36565C6.30588 4.34454 8.06977 3.83398 10.0003 3.83398C11.9309 3.83398 13.6948 4.34454 15.292 5.36565C16.8892 6.38621 18.0975 7.76454 18.917 9.50065C18.9587 9.5701 18.9864 9.65676 19.0003 9.76065C19.0142 9.8651 19.0212 9.97287 19.0212 10.084C19.0212 10.1951 19.0142 10.3026 19.0003 10.4065C18.9864 10.5109 18.9587 10.5979 18.917 10.6673C18.0975 12.4034 16.8892 13.782 15.292 14.8032C13.6948 15.8237 11.9309 16.334 10.0003 16.334Z" fill="#0F1A2A"/>
</g>
</svg>
