<svg width="20" height="21" viewBox="0 0 20 21" fill="none" xmlns="http://www.w3.org/2000/svg">
<mask id="mask0_1925_7601" style="mask-type:alpha" maskUnits="userSpaceOnUse" x="0" y="0" width="20" height="21">
<rect y="0.5" width="20" height="20" fill="#D9D9D9"/>
</mask>
<g mask="url(#mask0_1925_7601)">
<path d="M16.0837 14.25L13.417 11.5833C13.5281 11.3472 13.6114 11.1078 13.667 10.865C13.7225 10.6217 13.7503 10.3611 13.7503 10.0833C13.7503 9.04167 13.3859 8.15611 12.657 7.42667C11.9275 6.69778 11.042 6.33333 10.0003 6.33333C9.72255 6.33333 9.46199 6.36111 9.21866 6.41667C8.97588 6.47222 8.73644 6.55556 8.50033 6.66667L6.37533 4.54167C6.94477 4.30556 7.5281 4.12833 8.12533 4.01C8.72255 3.89222 9.34755 3.83333 10.0003 3.83333C11.9864 3.83333 13.7712 4.3575 15.3545 5.40583C16.9378 6.45472 18.1253 7.81945 18.917 9.5C18.9587 9.56945 18.9864 9.65611 19.0003 9.76C19.0142 9.86445 19.0212 9.97222 19.0212 10.0833C19.0212 10.1944 19.0109 10.3019 18.9903 10.4058C18.9692 10.5103 18.9448 10.5972 18.917 10.6667C18.5975 11.375 18.1984 12.0347 17.7195 12.6458C17.24 13.2569 16.6948 13.7917 16.0837 14.25ZM15.917 18.75L13.0003 15.875C12.5142 16.0278 12.0248 16.1425 11.532 16.2192C11.0387 16.2953 10.5281 16.3333 10.0003 16.3333C8.01421 16.3333 6.22949 15.8092 4.64616 14.7608C3.06283 13.7119 1.87533 12.3472 1.08366 10.6667C1.04199 10.5972 1.01421 10.5103 1.00033 10.4058C0.986437 10.3019 0.979492 10.1944 0.979492 10.0833C0.979492 9.97222 0.986437 9.86806 1.00033 9.77083C1.01421 9.67361 1.04199 9.59028 1.08366 9.52083C1.37533 8.89583 1.72255 8.31944 2.12533 7.79167C2.5281 7.26389 2.97255 6.77778 3.45866 6.33333L1.72949 4.58333C1.57671 4.43056 1.50033 4.23944 1.50033 4.01C1.50033 3.78111 1.58366 3.58333 1.75033 3.41667C1.9031 3.26389 2.09755 3.1875 2.33366 3.1875C2.56977 3.1875 2.76421 3.26389 2.91699 3.41667L17.0837 17.5833C17.2364 17.7361 17.3164 17.9272 17.3237 18.1567C17.3303 18.3856 17.2503 18.5833 17.0837 18.75C16.9309 18.9028 16.7364 18.9792 16.5003 18.9792C16.2642 18.9792 16.0698 18.9028 15.917 18.75ZM10.0003 13.8333C10.1531 13.8333 10.2953 13.8264 10.427 13.8125C10.5592 13.7986 10.7017 13.7708 10.8545 13.7292L6.35449 9.22917C6.31283 9.38195 6.28505 9.52444 6.27116 9.65667C6.25727 9.78833 6.25033 9.93056 6.25033 10.0833C6.25033 11.125 6.61477 12.0106 7.34366 12.74C8.0731 13.4689 8.95866 13.8333 10.0003 13.8333ZM12.2087 10.375L9.70866 7.875C10.5003 7.75 11.1462 7.97222 11.6462 8.54167C12.1462 9.11111 12.3337 9.72222 12.2087 10.375Z" fill="#0F1A2A"/>
</g>
</svg>
