<svg width="33" height="33" viewBox="0 0 33 33" fill="none" xmlns="http://www.w3.org/2000/svg">
<path d="M22.087 3.16602H10.9137C6.06033 3.16602 3.16699 6.05935 3.16699 10.9127V22.0727C3.16699 26.9394 6.06033 29.8327 10.9137 29.8327H22.0737C26.927 29.8327 29.8203 26.9394 29.8203 22.086V10.9127C29.8337 6.05935 26.9403 3.16602 22.087 3.16602ZM23.6337 12.566L20.5137 22.6194C19.767 25.006 16.4203 25.046 15.6337 22.6727L14.7003 19.9127C14.447 19.1527 13.847 18.5394 13.087 18.2994L10.3137 17.366C7.96699 16.5793 7.99366 13.206 10.3803 12.486L20.4337 9.35268C22.407 8.75268 24.2603 10.606 23.6337 12.566Z" fill="white"/>
<path d="M23.6337 12.566L20.5137 22.6194C19.767 25.006 16.4203 25.046 15.6337 22.6727L14.7003 19.9127C14.447 19.1527 13.847 18.5394 13.087 18.2994L10.3137 17.366C7.96699 16.5793 7.99366 13.206 10.3803 12.486L20.4337 9.35268C22.407 8.75268 24.2603 10.606 23.6337 12.566Z" fill="#4D82F3"/>
</svg>
